<svg width="1115" height="333" fill="none" xmlns="http://www.w3.org/2000/svg"><path fill="#1E2537" d="M0 293h154v40H0z"/><path d="m48 319-3-1-2-1 1-1 2 1h3l1-1v-1l-1-1h-4l-1-1v-4l2-1h4l1 1v1a6 6 0 0 0-3-1l-2 1v2h2l2 1 1 1 1 2-1 1-1 1-2 1Zm9-9 2 1 1 3v5h-2v-1l-2 1-2-1-1-1v-1l1-2h4v-2h-3l-1 1-1-2h2l2-1Zm-1 7h2v-2h-2l-1 1v1h1Zm11 1-1 1-2-1-1-2v-4h-1v-1h1v-2h2v2h2v1h-2v5h2v1Zm10-8v9h-2v-2l-1 1-2 1-2-1-1-3v-5h2v6l2 1 1-1 1-1v-5h2Zm4 2 3-2v2h-1l-1 1-1 2v4h-2v-9h2v2Zm12-5v12h-2v-2l-1 1-1 1-2-1-2-1v-5l2-1a4 4 0 0 1 3 0h1v-4h2Zm-4 10h1l1-1v-3l-1-1h-2l-1 1v3l1 1h1Zm10-7 2 1 1 3v5h-1v-1h-1l-2 1-1-1-2-1v-1l1-2h5l-1-2h-3l-1 1-1-2h2l2-1Zm-1 7h2l1-1v-1h-2l-2 1v1h1Zm14-7-4 9-1 2-2 1-1-1h-1l1-2a2 2 0 0 0 1 1h1l1-1-4-9h2l3 6 2-6h2Z" fill="#fff"/><path fill="#1E2537" d="M0 253h154v40H0z"/><path d="M57 270v3h5v1h-5v5h-2v-11h8v2h-6Zm9 2c1-1 1-2 3-2v2h-1l-1 1-1 2v4h-2v-9h2v2Zm4-2h2v9h-2v-9Zm1-1h-1v-2h2l1 1-1 1h-1Zm12-2v12h-2v-2l-1 1-2 1-2-1-1-1-1-3 1-2 1-1a4 4 0 0 1 4 0h1v-4h2Zm-5 10h2v-1l1-2-1-1v-1h-3l-1 1v3l1 1h1Zm10-7 3 1 1 3v5h-2v-1h-1l-2 1-1-1-1-1-1-1 1-2h5l-1-2h-2l-2 1v-2h1l2-1Zm0 7h1l1-1v-1h-2l-2 1 1 1h1Zm14-7-4 9-2 2-1 1-2-1v-2a2 2 0 0 0 2 1l1-1-3-9h2l2 6 3-6h2Z" fill="#fff"/><path fill="#1E2537" d="M0 213h154v40H0z"/><path d="M45 230h-3v-2h9v2h-4v9h-2v-9Zm12 0 2 1 1 3v5h-2v-6l-2-1-1 1-1 1v5h-2v-12h2v4h1l2-1Zm13 0v9h-2v-2l-1 1-1 1-3-1-1-3v-5h2v5l1 1 1 1 2-1v-6h2Zm4 2 3-2v2l-2 1-1 2v4h-1v-9h1v2Zm7 7-2-1h-1l1-2 1 1h1l2-1-2-1h-1l-1-1-1-1 1-2 3-1a7 7 0 0 1 3 1l-1 2-2-1h-2v1l2 1h1l1 1 1 1-1 2-3 1Zm13-12v12h-1v-2l-2 1-1 1-2-1-2-1v-5l2-1a4 4 0 0 1 3 0h1v-4h2Zm-4 10h1l1-1 1-2-1-1-1-1h-2l-1 1v3l1 1h1Zm10-7 3 1 1 3v5h-2v-1h-1l-2 1-1-1-1-1-1-1 1-2h5l-1-2h-3l-1 1-1-2h2l2-1Zm0 7h1l1-1v-1h-2l-2 1v1h2Zm13-7-3 9-2 2-2 1-1-1h-1l1-2a2 2 0 0 0 1 1h1l1-1-4-9h2l3 6 2-6h2Z" fill="#fff"/><path fill="#1E2537" d="M0 173h154v40H0z"/><path d="m49 188-4 11h-2l-3-8-2 8h-2l-4-11h2l3 8 3-8h1l3 8 3-8h2Zm8 7h-6v2h2l2-1 1 1-1 1-2 1-2-1a4 4 0 0 1-2-4v-2l2-1 2-1 2 1 1 1 1 3Zm-4-3h-2v2h4l-1-2h-1Zm14-5v12h-2v-2l-1 1-2 1-2-1-1-1-1-3 1-2 1-1a4 4 0 0 1 4 0h1v-4h2Zm-5 10h2v-1l1-2-1-1v-1h-3l-1 1v3l1 1h1Zm12-7 2 1 1 3v5h-2v-6l-2-1-1 1-1 1v5h-2v-9h2v2l1-1 2-1Zm13 5h-6v2h2l2-1 1 1-1 1-2 1-2-1a4 4 0 0 1-2-4v-2l2-1 2-1 2 1 1 1 1 3Zm-4-3h-2v2h4l-1-2h-1Zm8 7-2-1h-1l1-2 1 1h1l2-1-2-1h-1l-2-1v-1l1-2 3-1a7 7 0 0 1 3 1l-1 2-2-1h-2v1l2 1h1l1 1 1 1-1 2-3 1Zm13-12v12h-2v-2l-1 1-1 1-2-1-2-1v-5l2-1a4 4 0 0 1 3 0h1v-4h2Zm-4 10h1l1-1v-3l-1-1h-2l-1 1v3l1 1h1Zm10-7 2 1 1 3v5h-1v-1h-1l-2 1-1-1-1-1-1-1 1-2h5l-1-2h-3l-1 1-1-2h2l2-1Zm0 7h1l1-1v-1h-2l-2 1v1h2Zm13-7-4 9-1 2-2 1-1-1h-1l1-2a2 2 0 0 0 1 1h1l1-1-4-9h2l3 6 2-6h2Z" fill="#fff"/><path fill="#1E2537" d="M0 133h154v40H0z"/><path d="M50 150h-4v-2h9v2h-4v9h-1v-9Zm14 0v9h-2v-2l-1 1-2 1-2-1-1-3v-5h2v6l2 1 1-1 1-1v-5h2Zm10 5h-7l1 2h2l2-1 1 1-1 1-2 1-2-1a4 4 0 0 1-2-4v-2l2-1 2-1 2 1 1 1 1 3Zm-4-3h-2l-1 2h5l-1-2h-1Zm8 7-2-1h-1v-2l2 1h1l2-1h-1l-1-1h-2l-1-1v-1l1-2 2-1a7 7 0 0 1 3 1v2l-3-1h-1v1l2 1h1l1 1 1 1-1 2-3 1Zm13-12v12h-2v-2l-1 1-1 1-2-1-2-1v-5l2-1a4 4 0 0 1 3 0h1v-4h2Zm-4 10h1l1-1v-3l-1-1h-2l-1 1v3l1 1h1Zm10-7 2 1 1 3v5h-1v-1h-1l-2 1-2-1-1-1v-1l1-2h4v-2h-3l-1 1-1-2h2l2-1Zm-1 7h2v-2h-1l-2 1v1h1Zm14-7-4 9-1 2-2 1-1-1h-1l1-2a2 2 0 0 0 1 1h1l1-1-4-9h2l3 6 2-6h2Z" fill="#fff"/><path fill="#1E2537" d="M0 93h154v40H0z"/><path d="M58 119v-7l-4 5-4-5v7h-2v-11h2l4 7 4-7h2v11h-2Zm8 0-2-1a4 4 0 0 1-2-4v-2l2-1 2-1 2 1 2 1v5l-2 1-2 1Zm0-2 2-1v-3l-2-1-2 1v3l2 1Zm11-7 2 1 1 3v5h-2v-6l-2-1-1 1-1 1v5h-2v-9h2v2l1-1 2-1Zm13-3v12h-2v-2l-1 1-1 1-2-1-2-1v-5l2-1a4 4 0 0 1 3 0h1v-4h2Zm-4 10h1l1-1v-3l-1-1h-2l-1 1v3l1 1h1Zm10-7 2 1 1 3v5h-1v-1h-1l-2 1-1-1-1-1-1-1 1-2h5l-1-2h-3l-1 1-1-2h2l2-1Zm0 7h1l1-1v-1h-2l-2 1v1h2Zm13-7-4 9-1 2-2 1-1-1h-1l1-2a2 2 0 0 0 1 1h1l1-1-4-9h2l3 6 2-6h2Z" fill="#fff"/><path fill="#1E2537" d="M0 53h154v40H0z"/><path d="m53 79-2-1-2-1 1-1 1 1h4l1-1-1-1-1-1h-3l-1-1-1-2 1-2 1-1h4l2 1-1 1a6 6 0 0 0-2-1l-2 1-1 1 1 1h2l2 1 1 1v3l-1 1-3 1Zm14-9v9h-2v-2l-1 1-1 1-3-1-1-3v-5h2v6l2 1 1-1 1-1v-5h2Zm7 0 2 1 1 3v5h-2v-6l-1-1-2 1-1 1v5h-2v-9h2v2l1-1 2-1Zm14-3v12h-2v-2l-1 1-2 1-2-1-1-1-1-3 1-2 1-1a4 4 0 0 1 4 0h1v-4h2Zm-5 10h2v-1l1-2-1-1v-1h-3l-1 1v3l1 1h1Zm10-7 3 1 1 3v5h-2v-1h-1l-2 1-1-1-1-1-1-1 1-2h5l-1-2h-2l-2 1v-2h1l2-1Zm0 7h1l1-1v-1h-2l-2 1 1 1h1Zm14-7-4 9-2 2-1 1-2-1v-2a2 2 0 0 0 2 1l1-1-3-9h2l2 6 3-6h2Z" fill="#fff"/><path fill="url(#a)" stroke="#F3F3F3" d="M154 1h960v52H154z"/><path d="M174 22v10h-2v-8h-2v-2h4Zm9 8v2h-7v-1l4-4 1-1v-1l-1-1h-1l-2 1-2-1 2-2h2l3 1 1 2-1 1-1 2-3 2h5Zm2-3-1-1v-1l1-1 1 1v1l-1 1Zm0 5h-1v-2h2v2h-1Zm7 0h-2l-2-2v-6l2-1 2-1 2 1 1 1 1 3-1 3-1 2h-2Zm0-1 1-1 1-3-1-2-1-1-2 1-1 2 1 3 2 1Zm9 1h-2l-2-2v-6l2-1 2-1 2 1 2 1v6l-2 2h-2Zm0-1 2-1v-5l-2-1-2 1v5l2 1Zm9-7 2 1 1 3v4h-2v-1 1h-3l-1-1-1-1 1-2h4v-2h-3l-1 1v-2h1l2-1Zm0 7h1v-2h-1l-2 1v1h2Zm15-7 2 1 1 3v4h-2v-6h-2l-1 1v5h-2v-4l-1-2h-1l-1 1-1 1v4h-2v-7h3l2-1 1 1 1 1 1-1 2-1ZM1045 22v10h-2v-8h-2v-2h4Zm6 10a4 4 0 0 1-4-2v-6l2-1 2-1 2 1 2 1v6l-2 2h-2Zm0-1 2-1v-5l-2-1-2 1v5l2 1Zm6-4v-1h-1l1-1v-1l1 1 1 1h-1l-1 1Zm0 5-1-1 1-1h1l1 1-1 1h-1Zm7 0h-2l-2-2v-6l2-1 2-1 2 1 1 1 1 3-1 3-1 2h-2Zm0-1 2-1v-5l-2-1-2 1v5l2 1Zm9 1h-2l-1-2-1-3 1-3 1-1 2-1 2 1 2 1v6l-2 2h-2Zm0-1 2-1 1-3-1-2-2-1-1 1-1 2 1 3 1 1Zm10-7 2 1 2 1v4l-2 2h-2l-2-1v4h-2V25h2v1l1-1 1-1Zm0 7 2-1v-3l-2-1h-1l-1 1v2l1 1 1 1Zm15-7 2 1 1 3v4h-1v-4l-1-2h-1l-2 1v5h-2v-6h-2l-1 1v5h-2v-7h2l2-1 1 1 1 1 2-1 1-1ZM970 27l1 1 1 1-1 2-1 1h-5l-1-1v-3l1-1-1-1v-3l2-1h3l2 1v2a2 2 0 0 1-1 2Zm-2-4-2 1v2h3v-2l-1-1Zm0 8 1-1 1-1-1-1h-3l-1 1 1 1 2 1Zm6-4a1 1 0 0 1-1-1v-1l1-1 1 1v1l-1 1Zm0 5a1 1 0 0 1-1-1v-1h2v2h-1Zm6 0h-2l-1-2-1-3 1-3 1-1 2-1 2 1 2 1v6l-2 2h-2Zm0-1 2-1 1-3-1-2-2-1-1 1-1 2 1 3 1 1Zm10 1h-2l-2-2v-6l2-1 2-1 2 1 1 1 1 3-1 3-1 2h-2Zm0-1 1-1 1-3-1-2-1-1-2 1-1 2 1 3 2 1Zm10-7 2 1 1 1v4l-1 2h-2l-3-1v4h-1V25h1v1l1-1 2-1Zm-1 7 2-1 1-2-1-1-2-1h-1v1l-1 1 1 1v1l1 1Zm16-7 2 1 1 3v4h-2v-4l-1-2h-1l-1 1-1 1v4h-1v-4l-1-2h-1l-2 1v5h-2v-7h3l1-1 2 1 1 1 1-1 2-1ZM890 26h2a3 3 0 0 1 1 3 3 3 0 0 1-1 3h-2l-3-1-1-4v-3l2-1 2-1h2l1 1-1 1h-4l-1 3 2-1h1Zm0 5 1-1 1-1-1-1-1-1-2 1v2l2 1Zm5-4v-1h-1l1-1v-1l1 1 1 1h-1l-1 1Zm0 5-1-1 1-1h1l1 1-1 1h-1Zm7 0h-2l-2-2v-6l2-1 2-1 2 1 1 1 1 3-1 3-1 2h-2Zm0-1 2-1v-5l-2-1-2 1v5l2 1Zm9 1h-2l-1-2-1-3 1-3 1-1 2-1 2 1 2 1v6l-2 2h-2Zm0-1 2-1 1-3-1-2-2-1-1 1-1 2 1 3 1 1Zm10-7 2 1 2 1v4l-2 2h-2l-2-1v4h-2V25h2v1l1-1 1-1Zm0 7 2-1v-3l-2-1h-1l-1 1v2l1 1 1 1Zm15-7 2 1 1 3v4h-1v-4l-1-2h-1l-2 1v5h-2v-6h-2l-1 1v5h-2v-7h2l2-1 1 1 1 1 2-1 1-1ZM816 30h-1v2h-2v-2h-6v-1l5-7h2l-4 6h3v-2h2v2h1v2Zm2-3a1 1 0 0 1-1-1v-1l1-1 1 1v1l-1 1Zm0 5a1 1 0 0 1-1-1v-1h2v2h-1Zm7 0h-2l-2-2v-6l2-1 2-1 2 1 1 1 1 3-1 3-1 2h-2Zm0-1 1-1 1-3-1-2-1-1-2 1-1 2 1 3 2 1Zm9 1h-2l-1-2-1-3 1-3 1-1 2-1 2 1 2 1v6l-2 2h-2Zm0-1 2-1v-5l-2-1-2 1v5l2 1Zm10-7 2 1 1 1 1 2-1 2-1 2h-2l-2-1v4h-2V25h2v1l1-1 1-1Zm0 7 2-1v-3l-2-1h-1l-1 1v2l1 1 1 1Zm15-7 2 1 1 3v4h-2v-6h-1l-2 1v5h-2v-6h-2l-1 1-1 1v4h-1v-7h2l2-1 1 1 1 1 1-1 2-1ZM737 30v2h-8v-1l4-4 1-1 1-1-1-1h-1l-3 1-1-1 2-2h2l2 1 1 2v1l-1 2-3 2h5Zm2-3-1-1v-1l1-1 1 1v1l-1 1Zm0 5h-1v-2h2v2h-1Zm6 0h-2l-1-2-1-3 1-3 1-1 2-1 2 1 2 1v6l-2 2h-2Zm0-1 2-1 1-3-1-2-2-1-1 1-1 2 1 3 1 1Zm10 1h-2l-2-2v-6l2-1 2-1 2 1 1 1 1 3-1 3-1 2h-2Zm0-1 1-1 1-3-1-2-1-1-2 1-1 2 1 3 2 1Zm10-7 2 1 1 1v4l-1 2h-2l-3-1v4h-1V25h1v1l1-1 2-1Zm0 7 1-1 1-2-1-1-1-1h-2v1l-1 1 1 1v1l2 1Zm15-7 2 1 1 3v4h-2v-4l-1-2h-1l-1 1-1 1v4h-1v-4l-1-2h-1l-2 1v5h-2v-7h3l1-1 2 1 1 1 1-1 2-1ZM650 22v10h-2v-8h-2v-2h4Zm9 8v2h-7v-1l4-4 1-1v-1l-1-1h-1l-2 1-2-1 2-2h2l3 1 1 2-1 1-1 2-3 2h5Zm2-3-1-1v-1l1-1 1 1v1l-1 1Zm0 5h-1v-2h2v2h-1Zm7 0h-2l-2-2v-6l2-1 2-1 2 1 1 1 1 3-1 3-1 2h-2Zm0-1 1-1 1-3-1-2-1-1-2 1-1 2 1 3 2 1Zm9 1h-2l-2-2v-6l2-1 2-1 2 1 2 1v6l-2 2h-2Zm0-1 2-1v-5l-2-1-2 1v5l2 1Zm10-7 2 1 1 1 1 2-1 2-1 2h-2l-2-1v4h-2V25h2v1l1-1 1-1Zm0 7 1-1 1-2-1-1-1-1h-1l-1 1v2l1 1 1 1Zm15-7 2 1 1 3v4h-2v-6h-1l-2 1v5h-2v-4l-1-2h-1l-1 1-1 1v4h-2v-7h3l2-1 1 1 1 1 1-1 2-1ZM567 22v10h-2v-8h-2v-2h4Zm6 10h-2l-2-2v-6l2-1 2-1 2 1 2 1v6l-2 2h-2Zm0-1 2-1v-5l-2-1-2 1v5l2 1Zm6-4v-1h-1l1-1v-1l1 1 1 1h-1l-1 1Zm0 5-1-1 1-1h1l1 1-1 1h-1Zm7 0h-2l-2-2v-6l2-1 2-1 2 1 1 1 1 3-1 3-1 2h-2Zm0-1 2-1v-5l-2-1-2 1v5l2 1Zm9 1h-2l-1-2-1-3 1-3 1-1 2-1 2 1 2 1v6l-2 2h-2Zm0-1 2-1 1-3-1-2-2-1-1 1-1 2 1 3 1 1Zm9-7 3 1v7h-1v-1l-1 1h-3l-1-1v-3h5l-1-2h-2l-1 1-1-2h1l2-1Zm0 7h1l1-1v-1h-2l-2 1 1 1h1Zm15-7 2 1 1 3v4h-2v-6h-1l-2 1v5h-2v-6h-2l-1 1-1 1v4h-1v-7h2l2-1 1 1 1 1 1-1 2-1ZM492 27l1 1 1 1-1 2-1 1h-5l-1-1v-3l1-1-1-1v-3l2-1h3l2 1v2a2 2 0 0 1-1 2Zm-2-4-2 1v2h3v-2l-1-1Zm0 8 1-1 1-1-1-1h-3l-1 1 1 1 2 1Zm6-4a1 1 0 0 1-1-1v-1l1-1 1 1v1l-1 1Zm0 5a1 1 0 0 1-1-1v-1h2v2h-1Zm6 0h-2l-1-2-1-3 1-3 1-1 2-1 2 1 2 1v6l-2 2h-2Zm0-1 2-1 1-3-1-2-2-1-1 1-1 2 1 3 1 1Zm10 1h-2l-2-2v-6l2-1 2-1 2 1 1 1 1 3-1 3-1 2h-2Zm0-1 1-1 1-3-1-2-1-1-2 1-1 2 1 3 2 1Zm8-7 3 1 1 3v4h-2v-1l-1 1h-3l-1-1v-1l1-2h4v-2h-3l-1 1-1-2h2l1-1Zm0 7h1l1-1v-1h-2l-1 1v1h1Zm15-7 3 1 1 3v4h-2v-4l-1-2h-1l-1 1-1 1v4h-2v-6h-1l-2 1v5h-2v-7h3l1-1 2 1 1 1 1-1 1-1ZM412 26h2a3 3 0 0 1 1 3 3 3 0 0 1-1 3h-2l-3-1-1-4v-3l2-1 2-1h2l1 1-1 1h-4l-1 3 2-1h1Zm0 5 1-1 1-1-1-1-1-1-2 1v2l2 1Zm5-4v-1h-1l1-1v-1l1 1 1 1h-1l-1 1Zm0 5-1-1 1-1h1l1 1-1 1h-1Zm7 0h-2l-2-2v-6l2-1 2-1 2 1 1 1 1 3-1 3-1 2h-2Zm0-1 2-1v-5l-2-1-2 1v5l2 1Zm9 1h-2l-1-2-1-3 1-3 1-1 2-1 2 1 2 1v6l-2 2h-2Zm0-1 2-1 1-3-1-2-2-1-1 1-1 2 1 3 1 1Zm9-7 3 1v7h-1v-1l-1 1h-3l-1-1v-3h5l-1-2h-2l-1 1-1-2h1l2-1Zm0 7h1l1-1v-1h-2l-2 1 1 1h1Zm15-7 2 1 1 3v4h-2v-6h-1l-2 1v5h-2v-6h-2l-1 1-1 1v4h-1v-7h2l2-1 1 1 1 1 2-1 1-1ZM339 30h-1v2h-2v-2h-6v-1l5-7h2l-4 6h3v-2h2v2h1v2Zm2-3a1 1 0 0 1-1-1v-1l1-1 1 1v1l-1 1Zm0 5a1 1 0 0 1-1-1v-1h2v2h-1Zm7 0h-2l-2-2v-6l2-1 2-1 2 1 1 1 1 3-1 3-1 2h-2Zm0-1 1-1 1-3-1-2-1-1-2 1-1 2 1 3 2 1Zm9 1h-2l-1-2-1-3 1-3 1-1 2-1 2 1 2 1v6l-2 2h-2Zm0-1 2-1v-5l-2-1-2 1v5l2 1Zm9-7 2 1 1 3v4h-1v-1l-1 1h-3l-1-1-1-1 1-2h5l-1-2h-3l-1 1v-2h1l2-1Zm0 7h1l1-1v-1h-2l-2 1 1 1h1Zm15-7 2 1 1 3v4h-2v-6h-1l-2 1v5h-2v-4l-1-2h-1l-1 1-1 1v4h-1v-7h2l2-1 1 1 1 1 1-1 2-1ZM260 30v2h-8v-1l4-4 1-1 1-1-1-1h-1l-3 1-1-1 2-2h2l2 1 1 2v1l-1 2-3 2h5Zm2-3-1-1v-1l1-1 1 1v1l-1 1Zm0 5h-1v-2h2v2h-1Zm6 0h-2l-1-2-1-3 1-3 1-1 2-1 2 1 2 1v6l-2 2h-2Zm0-1 2-1 1-3-1-2-2-1-1 1-1 2 1 3 1 1Zm10 1h-2l-2-2v-6l2-1 2-1 2 1 1 1 1 3-1 3-1 2h-2Zm0-1 1-1 1-3-1-2-1-1-2 1-1 2 1 3 2 1Zm8-7 3 1 1 3v4h-2v-1l-1 1h-3l-1-1v-1l1-2h4v-2h-3l-1 1-1-2h2l1-1Zm0 7h1l1-1v-1h-2l-1 1v1h1Zm15-7 3 1 1 3v4h-2v-4l-1-2h-1l-1 1-1 1v4h-2v-6h-1l-2 1v5h-2v-7h3l1-1 2 1 1 1 1-1 1-1Z" fill="#787878"/><path fill="#A9D194" d="M154 53h40v40h-40z"/><path d="M178 76v2h-8v-1l4-4 1-1v-2h-3v1l-2-1 1-1 3-1h2l1 1v3l-1 2-2 2h4Z" fill="#fff"/><path fill="#A9D194" d="M234 53h40v40h-40z"/><path d="M256 68v10h-3v-8h-2v-2h5Z" fill="#fff"/><path fill="#A9D194" d="M314 53h40v40h-40z"/><path d="M336 68v10h-3v-8h-2v-2h5Z" fill="#fff"/><path fill="#A9D194" d="M434 53h40v40h-40z"/><path d="M456 68v10h-3v-8h-2v-2h5Z" fill="#fff"/><path fill="#A9D194" d="M474 53h40v40h-40z"/><path d="M496 68v10h-3v-8h-2v-2h5Z" fill="#fff"/><path fill="#A9D194" d="M634 53h40v40h-40z"/><path d="M656 68v10h-3v-8h-2v-2h5Z" fill="#fff"/><path fill="#A9D194" d="M914 53h40v40h-40z"/><path d="M938 76v2h-8v-1l4-4 1-1v-2h-3v1l-2-1 1-1 3-1h2l1 1v3l-1 2-2 2h4Z" fill="#fff"/><path fill="#A0CE93" d="M874 53h40v40h-40z"/><path d="m895 72 2 1 1 2-1 2-1 1h-4l-2-1 1-2a4 4 0 0 0 3 1h1v-1l-1-1h-2v-2l3-2h-5v-2h7v2l-2 2Z" fill="#fff"/><path fill="#A0CE93" d="M1074 53h40v40h-40z"/><path d="m1095 72 2 1 1 2-1 2-1 1h-4l-2-1 1-2a4 4 0 0 0 3 1h1v-1l-1-1h-2v-2l3-2h-5v-2h7v2l-2 2Z" fill="#fff"/><path fill="#A9D194" d="M594 53h40v40h-40z"/><path d="M618 76v2h-8v-1l4-4 1-1v-2h-3v1l-2-1 1-1 3-1h2l1 1v3l-1 2-2 2h4Z" fill="#fff"/><path fill="#A9D194" d="M554 53h40v40h-40z"/><path d="M578 76v2h-8v-1l4-4 1-1v-2h-3v1l-2-1 1-1 3-1h2l1 1v3l-1 2-2 2h4Z" fill="#fff"/><path fill="#A0CE93" d="M274 53h40v40h-40z"/><path d="m295 72 2 1 1 2-1 2-1 1h-4l-2-1 1-2a4 4 0 0 0 3 1h1v-1l-1-1h-2v-2l3-2h-5v-2h7v2l-2 2Z" fill="#fff"/><path fill="#A9D194" d="M354 53h40v40h-40z"/><path d="M379 76h-2v2h-2v-2h-5v-2l4-6h3l-5 6h3v-2h2v2h2v2Z" fill="#fff"/><path fill="#A9D194" d="M514 53h40v40h-40z"/><path d="M539 76h-2v2h-2v-2h-5v-2l4-6h3l-5 6h3v-2h2v2h2v2Z" fill="#fff"/><path fill="#8CC894" d="M674 53h40v40h-40z"/><path d="m694 72 3 1 1 2-1 2-1 1h-4l-2-1 1-2a4 4 0 0 0 3 1h1v-2h-4v-6h6v2h-4v2h1Z" fill="#fff"/><path fill="#8CC894" d="M994 53h40v40h-40z"/><path d="m1014 72 3 1 1 2-1 2-1 1h-4l-2-1 1-2a5 5 0 0 0 3 1h1v-2h-4v-6h6v2h-4v2h1Z" fill="#fff"/><path fill="#5EB391" d="M834 53h40v40h-40z"/><path d="M855 72h2l1 1v2a3 3 0 0 1-2 3h-2l-3-1-1-4 1-3 1-1 3-1a6 6 0 0 1 3 1l-1 1h-2l-2 1-1 2 3-1Zm-1 4h2v-2h-3v2h1Z" fill="#fff"/><path fill="#5AAD8C" d="M954 53h40v40h-40z"/><path d="m974 68 3 1 1 4-1 3-1 2h-5l-1-1 1-1h4l1-3-3 1h-2l-1-1v-2a3 3 0 0 1 2-3h2Zm0 5 1-1v-2h-3v2l2 1Z" fill="#fff"/><path fill="#5AAD8C" d="M1034 53h40v40h-40z"/><path d="m1054 68 3 1 1 4-1 3-1 2h-5l-1-1 1-1h4l1-3-3 1h-2l-1-1v-3l2-2h2Zm0 5 1-1v-2h-3v2l2 1Z" fill="#fff"/><path fill="#5EB391" d="M794 53h40v40h-40z"/><path d="M815 72h2l1 1v2a3 3 0 0 1-2 3h-2l-3-1-1-4 1-3 1-1 3-1a6 6 0 0 1 3 1l-1 1h-2l-2 1-1 2 3-1Zm-1 4h2v-2h-3v2h1Z" fill="#fff"/><path fill="#5EB391" d="M754 53h40v40h-40z"/><path d="M778 68v2l-4 8h-2l3-8h-3v2h-2v-4h8Z" fill="#fff"/><path fill="#5EB391" d="M714 53h40v40h-40z"/><path d="M735 72h2l1 1v2a3 3 0 0 1-2 3h-2l-3-1-1-4 1-3 1-1 3-1a6 6 0 0 1 3 1l-1 1h-2l-2 1-1 2 3-1Zm-1 4h2v-2h-3v2h1Z" fill="#fff"/><path fill="#A0CE93" d="M394 53h40v40h-40z"/><path d="M418 76v2h-8v-1l4-4 1-1v-2h-3v1l-2-1 1-1 3-1h2l1 1v3l-1 2-2 2h4Z" fill="#fff"/><path fill="#A0CE93" d="M194 53h40v40h-40z"/><path d="m215 72 2 1 1 2-1 2-1 1h-4l-2-1 1-2a4 4 0 0 0 3 1h1v-1l-1-1h-2v-2l3-2h-5v-2h7v2l-2 2Z" fill="#fff"/><path fill="#A0CE93" d="M434 253h40v40h-40z"/><path d="m455 272 2 1 1 2-1 2-1 1h-4l-2-1 1-2a4 4 0 0 0 3 1h1v-1l-1-1h-2v-2l3-2h-5v-2h7v2l-2 2Z" fill="#fff"/><path fill="#A9D194" d="M234 253h40v40h-40z"/><path d="M256 268v10h-3v-8h-2v-2h5Z" fill="#fff"/><path fill="#A9D194" d="M314 253h40v40h-40z"/><path d="M336 268v10h-3v-8h-2v-2h5Z" fill="#fff"/><path fill="#A9D194" d="M674 253h40v40h-40z"/><path d="M696 268v10h-3v-8h-2v-2h5Z" fill="#fff"/><path fill="#A9D194" d="M154 253h40v40h-40z"/><path d="M176 268v10h-3v-8h-2v-2h5Z" fill="#fff"/><path fill="#A9D194" d="M394 253h40v40h-40z"/><path d="M418 276v2h-8v-1l4-4 1-1v-2h-3v1l-2-1 1-1 3-1h2l1 1v3l-1 2-2 2h4Z" fill="#fff"/><path fill="#A9D194" d="M594 253h40v40h-40z"/><path d="M618 276v2h-8v-1l4-4 1-1v-2h-3v1l-2-1 1-1 3-1h2l1 1v3l-1 2-2 2h4Z" fill="#fff"/><path fill="#A9D194" d="M354 253h40v40h-40z"/><path d="M378 276v2h-8v-1l4-4 1-1v-2h-3v1l-2-1 1-1 3-1h2l1 1v3l-1 2-2 2h4Z" fill="#fff"/><path fill="#E0E5A3" d="M514 253h40v40h-40z"/><path d="M534 278h-2l-2-2v-6l2-1 2-1 2 1 2 1v6l-2 2h-2Zm0-2 1-1 1-2-1-2-1-1-1 1-1 2 1 2 1 1Z" fill="#fff"/><path fill="#E0E5A3" d="M474 253h40v40h-40z"/><path d="M494 278h-2l-2-2v-6l2-1 2-1 2 1 2 1v6l-2 2h-2Zm0-2 1-1 1-2-1-2-1-1-1 1-1 2 1 2 1 1Z" fill="#fff"/><path fill="#A0CE93" d="M554 253h40v40h-40z"/><path d="m575 272 2 1 1 2-1 2-1 1h-4l-2-1 1-2a4 4 0 0 0 3 1h1v-1l-1-1h-2v-2l3-2h-5v-2h7v2l-2 2Z" fill="#fff"/><path fill="#A0CE93" d="M954 253h40v40h-40z"/><path d="m975 272 2 1 1 2-1 2-1 1h-4l-2-1 1-2a4 4 0 0 0 3 1h1v-1l-1-1h-2v-2l3-2h-5v-2h7v2l-2 2Z" fill="#fff"/><path fill="#A9D194" d="M1074 253h40v40h-40z"/><path d="M1099 276h-2v2h-2v-2h-5v-2l4-6h3l-5 6h3v-2h2v2h2v2Z" fill="#fff"/><path fill="#A9D194" d="M874 253h40v40h-40z"/><path d="M899 276h-2v2h-2v-2h-5v-2l4-6h3l-5 6h3v-2h2v2h2v2Z" fill="#fff"/><path fill="#8CC894" d="M634 253h40v40h-40z"/><path d="m654 272 3 1 1 2-1 2-1 1h-4l-2-1 1-2a4 4 0 0 0 3 1h1v-2h-4v-6h6v2h-4v2h1Z" fill="#fff"/><path fill="#8CC894" d="M834 253h40v40h-40z"/><path d="m854 272 3 1 1 2-1 2-1 1h-4l-2-1 1-2a4 4 0 0 0 3 1h1v-2h-4v-6h6v2h-4v2h1Z" fill="#fff"/><path fill="#8CC894" d="M914 253h40v40h-40z"/><path d="m934 272 3 1 1 2-1 2-1 1h-4l-2-1 1-2a4 4 0 0 0 3 1h1v-2h-4v-6h6v2h-4v2h1Z" fill="#fff"/><path fill="#5AAD8C" d="M1034 253h40v40h-40z"/><path d="m1054 268 3 1 1 4-1 3-1 2h-5l-1-1 1-1h4l1-3-3 1h-2l-1-1v-3l2-2h2Zm0 5 1-1v-2h-3v2l2 1Z" fill="#fff"/><path fill="#5EB391" d="M994 253h40v40h-40z"/><path d="M1015 272h2a3 3 0 0 1 1 3v2l-2 1h-2l-3-1-1-4 1-3 1-1 3-1a6 6 0 0 1 3 1l-1 1h-2l-2 1-1 2 3-1Zm-1 4h2v-2h-3v2h1Z" fill="#fff"/><path fill="#5EB391" d="M794 253h40v40h-40z"/><path d="m817 273 1 1v3l-2 1h-4l-2-1v-3l1-1v-1l-1-1 1-2 1-1h4l1 1 1 2-1 1v1Zm-3-3h-1l-1 1 1 1h2l1-1-1-1h-1Zm0 7 1-1 1-1-1-1h-2l-1 1 1 1 1 1Z" fill="#fff"/><path fill="#5EB391" d="M754 253h40v40h-40z"/><path d="M775 272h2l1 1v2a3 3 0 0 1-2 3h-2l-3-1-1-4 1-3 1-1 3-1h2l1 1-1 1h-2l-2 1-1 2 3-1Zm-1 4h2v-2h-3v2h1Z" fill="#fff"/><path fill="#5EB391" d="M714 253h40v40h-40z"/><path d="M735 272h2l1 1v2a3 3 0 0 1-2 3h-2l-3-1-1-4 1-3 1-1 3-1h2l1 1-1 1h-2l-2 1-1 2 3-1Zm-1 4h2v-2h-3v2h1Z" fill="#fff"/><path fill="#A9D194" d="M194 253h40v40h-40z"/><path d="M218 276v2h-8v-1l4-4 1-1v-2h-3v1l-2-1 1-1 3-1h2l1 1v3l-1 2-2 2h4Z" fill="#fff"/><path fill="#8CC894" d="M274 253h40v40h-40z"/><path d="m294 272 3 1 1 2-1 2-1 1h-4l-2-1 1-2a4 4 0 0 0 3 1h1v-2h-4v-6h6v2h-4v2h1Z" fill="#fff"/><path fill="#A0CE93" d="M194 213h40v40h-40z"/><path d="m215 232 2 1 1 2-1 2-1 1h-4l-2-1 1-2a4 4 0 0 0 3 1h1v-1l-1-1h-2v-2l3-2h-5v-2h7v2l-2 2Z" fill="#fff"/><path fill="#A9D194" d="M354 213h40v40h-40z"/><path d="M376 228v10h-3v-8h-2v-2h5Z" fill="#fff"/><path fill="#A9D194" d="M274 213h40v40h-40z"/><path d="M296 228v10h-3v-8h-2v-2h5Z" fill="#fff"/><path fill="#A9D194" d="M394 213h40v40h-40z"/><path d="M418 236v2h-8v-1l4-4 1-1v-2h-3v1l-2-1 1-1 3-1h2l1 1v3l-1 2-2 2h4Z" fill="#fff"/><path fill="#E0E5A3" d="M314 213h40v40h-40z"/><path d="M334 238h-2l-2-2v-6l2-1 2-1 2 1 2 1v6l-2 2h-2Zm0-2 1-1 1-2-1-2-1-1-1 1-1 2 1 2 1 1Z" fill="#fff"/><path fill="#A0CE93" d="M514 213h40v40h-40z"/><path d="m535 232 2 1 1 2-1 2-1 1h-4l-2-1 1-2a4 4 0 0 0 3 1h1v-1l-1-1h-2v-2l3-2h-5v-2h7v2l-2 2Z" fill="#fff"/><path fill="#A0CE93" d="M474 213h40v40h-40z"/><path d="m495 232 2 1 1 2-1 2-1 1h-4l-2-1 1-2a4 4 0 0 0 3 1h1v-1l-1-1h-2v-2l3-2h-5v-2h7v2l-2 2Z" fill="#fff"/><path fill="#A0CE93" d="M634 213h40v40h-40z"/><path d="m655 232 2 1 1 2-1 2-1 1h-4l-2-1 1-2a4 4 0 0 0 3 1h1v-1l-1-1h-2v-2l3-2h-5v-2h7v2l-2 2Z" fill="#fff"/><path fill="#A0CE93" d="M594 213h40v40h-40z"/><path d="m615 232 2 1 1 2-1 2-1 1h-4l-2-1 1-2a4 4 0 0 0 3 1h1v-1l-1-1h-2v-2l3-2h-5v-2h7v2l-2 2Z" fill="#fff"/><path fill="#A9D194" d="M874 213h40v40h-40z"/><path d="M899 236h-2v2h-2v-2h-5v-2l4-6h3l-5 6h3v-2h2v2h2v2Z" fill="#fff"/><path fill="#A9D194" d="M914 213h40v40h-40z"/><path d="M936 228v10h-3v-8h-2v-2h5Z" fill="#fff"/><path fill="#A9D194" d="M1074 213h40v40h-40z"/><path d="M1098 236v2h-8v-1l4-4 1-1v-2h-3v1l-2-1 1-1 3-1h2l1 1v3l-1 2-2 2h4Z" fill="#fff"/><path fill="#A9D194" d="M1034 213h40v40h-40z"/><path d="M1056 228v10h-3v-8h-2v-2h5Z" fill="#fff"/><path fill="#A9D194" d="M434 213h40v40h-40z"/><path d="M459 236h-2v2h-2v-2h-5v-2l4-6h3l-5 6h3v-2h2v2h2v2Z" fill="#fff"/><path fill="#A9D194" d="M714 213h40v40h-40z"/><path d="M739 236h-2v2h-2v-2h-5v-2l4-6h3l-5 6h3v-2h2v2h2v2Z" fill="#fff"/><path fill="#8CC894" d="M554 213h40v40h-40z"/><path d="m574 232 3 1 1 2-1 2-1 1h-4l-2-1 1-2a4 4 0 0 0 3 1h1v-2h-4v-6h6v2h-4v2h1Z" fill="#fff"/><path fill="#A9D194" d="M994 213h40v40h-40z"/><path d="M1019 236h-2v2h-2v-2h-5v-2l4-6h3l-5 6h3v-2h2v2h2v2Z" fill="#fff"/><path fill="#A9D194" d="M954 213h40v40h-40z"/><path d="M979 236h-2v2h-2v-2h-5v-2l4-6h3l-5 6h3v-2h2v2h2v2Z" fill="#fff"/><path fill="#8CC894" d="M674 213h40v40h-40z"/><path d="m694 232 3 1 1 2-1 2-1 1h-4l-2-1 1-2a4 4 0 0 0 3 1h1v-2h-4v-6h6v2h-4v2h1Z" fill="#fff"/><path fill="#8CC894" d="M794 213h40v40h-40z"/><path d="m814 232 3 1 1 2-1 2-1 1h-4l-2-1 1-2a4 4 0 0 0 3 1h1v-2h-4v-6h6v2h-4v2h1Z" fill="#fff"/><path fill="#5EB391" d="M834 213h40v40h-40z"/><path d="m857 233 1 1v3l-2 1h-4l-2-1v-3l1-1v-1l-1-1 1-2 1-1h4l1 1 1 2-1 1v1Zm-3-3h-1l-1 1 1 1h2l1-1-1-1h-1Zm0 7 1-1 1-1-1-1h-2l-1 1 1 1 1 1Z" fill="#fff"/><path fill="#5EB391" d="M754 213h40v40h-40z"/><path d="m774 228 3 1 1 4-1 3-1 2h-5l-1-1 1-1h4l1-3-3 1h-2l-1-1v-2a3 3 0 0 1 2-3h2Zm0 5 1-1v-2h-3v2l2 1Z" fill="#fff"/><path fill="#A9D194" d="M234 213h40v40h-40z"/><path d="M258 236v2h-8v-1l4-4 1-1v-2h-3v1l-2-1 1-1 3-1h2l1 1v3l-1 2-2 2h4Z" fill="#fff"/><path fill="#8CC894" d="M154 213h40v40h-40z"/><path d="M179 236h-2v2h-2v-2h-5v-2l4-6h3l-5 6h3v-2h2v2h2v2Z" fill="#fff"/><path fill="#A9D194" d="M434 293h40v40h-40z"/><path d="M456 308v10h-3v-8h-2v-2h5Z" fill="#fff"/><path fill="#A9D194" d="M514 293h40v40h-40z"/><path d="M536 308v10h-3v-8h-2v-2h5Z" fill="#fff"/><path fill="#A9D194" d="M194 293h40v40h-40z"/><path d="M216 308v10h-3v-8h-2v-2h5Z" fill="#fff"/><path fill="#A9D194" d="M274 293h40v40h-40z"/><path d="M296 308v10h-3v-8h-2v-2h5Z" fill="#fff"/><path fill="#A9D194" d="M994 293h40v40h-40z"/><path d="M1018 316v2h-8v-1l4-4 1-1v-2h-3v1l-2-1 1-1 3-1h2l1 1v3l-1 2-2 2h4Z" fill="#fff"/><path fill="#A9D194" d="M954 293h40v40h-40z"/><path d="M978 316v2h-8v-1l4-4 1-1v-2h-3v1l-2-1 1-1 3-1h2l1 1v3l-1 2-2 2h4Z" fill="#fff"/><path fill="#E0E5A3" d="M554 293h40v40h-40z"/><path d="M574 318h-2l-2-2v-6l2-1 2-1 2 1 2 1v6l-2 2h-2Zm0-2 1-1 1-2-1-2-1-1-1 1-1 2 1 2 1 1Z" fill="#fff"/><path fill="#A0CE93" d="M1034 293h40v40h-40z"/><path d="m1055 312 2 1 1 2-1 2-1 1h-4l-2-1 1-2a4 4 0 0 0 3 1h1v-1l-1-1h-2v-2l3-2h-5v-2h7v2l-2 2Z" fill="#fff"/><path fill="#A0CE93" d="M594 293h40v40h-40z"/><path d="m615 312 2 1 1 2-1 2-1 1h-4l-2-1 1-2a4 4 0 0 0 3 1h1v-1l-1-1h-2v-2l3-2h-5v-2h7v2l-2 2Z" fill="#fff"/><path fill="#A9D194" d="M1074 293h40v40h-40z"/><path d="M1099 316h-2v2h-2v-2h-5v-2l4-6h3l-5 6h3v-2h2v2h2v2Z" fill="#fff"/><path fill="#A9D194" d="M394 293h40v40h-40z"/><path d="M419 316h-2v2h-2v-2h-5v-2l4-6h3l-5 6h3v-2h2v2h2v2Z" fill="#fff"/><path fill="#A9D194" d="M474 293h40v40h-40z"/><path d="M499 316h-2v2h-2v-2h-5v-2l4-6h3l-5 6h3v-2h2v2h2v2Z" fill="#fff"/><path fill="#A9D194" d="M674 293h40v40h-40z"/><path d="M699 316h-2v2h-2v-2h-5v-2l4-6h3l-5 6h3v-2h2v2h2v2Z" fill="#fff"/><path fill="#A9D194" d="M794 293h40v40h-40z"/><path d="M819 316h-2v2h-2v-2h-5v-2l4-6h3l-5 6h3v-2h2v2h2v2Z" fill="#fff"/><path fill="#8CC894" d="M914 293h40v40h-40z"/><path d="m934 312 3 1 1 2-1 2-1 1h-4l-2-1 1-2a4 4 0 0 0 3 1h1v-2h-4v-6h6v2h-4v2h1Z" fill="#fff"/><path fill="#8CC894" d="M874 293h40v40h-40z"/><path d="m894 312 3 1 1 2-1 2-1 1h-4l-2-1 1-2a4 4 0 0 0 3 1h1v-2h-4v-6h6v2h-4v2h1Z" fill="#fff"/><path fill="#5EB391" d="M754 293h40v40h-40z"/><path d="m777 313 1 1v3l-2 1h-4l-2-1v-3l1-1v-1l-1-1 1-2 1-1h4l1 1 1 2-1 1v1Zm-3-3h-1l-1 1 1 1h2l1-1-1-1h-1Zm0 7 1-1 1-1-1-1h-2l-1 1 1 1 1 1Z" fill="#fff"/><path fill="#5EB391" d="M834 293h40v40h-40z"/><path d="M858 308v2l-4 8h-2l3-8h-3v2h-2v-4h8Z" fill="#fff"/><path fill="#5EB391" d="M634 293h40v40h-40z"/><path d="M655 312h2l1 1v2a3 3 0 0 1-2 3h-2l-3-1-1-4 1-3 1-1 3-1h2l1 1-1 1h-2l-2 1-1 2 3-1Zm-1 4h2v-2h-3v2h1Z" fill="#fff"/><path fill="#A9D194" d="M234 293h40v40h-40z"/><path d="M258 316v2h-8v-1l4-4 1-1v-2h-3v1l-2-1 1-1 3-1h2l1 1v3l-1 2-2 2h4Z" fill="#fff"/><path fill="#A9D194" d="M354 293h40v40h-40z"/><path d="M378 316v2h-8v-1l4-4 1-1v-2h-3v1l-2-1 1-1 3-1h2l1 1v3l-1 2-2 2h4Z" fill="#fff"/><path fill="#A9D194" d="M314 293h40v40h-40z"/><path d="M338 316v2h-8v-1l4-4 1-1v-2h-3v1l-2-1 1-1 3-1h2l1 1v3l-1 2-2 2h4Z" fill="#fff"/><path fill="#A9D194" d="M714 293h40v40h-40z"/><path d="M736 308v10h-3v-8h-2v-2h5Z" fill="#fff"/><path fill="#8CC894" d="M154 293h40v40h-40z"/><path d="m174 312 3 1 1 2-1 2-1 1h-4l-2-1 1-2a4 4 0 0 0 3 1h1v-2h-4v-6h6v2h-4v2h1Z" fill="#fff"/><path fill="#A0CE93" d="M154 173h40v40h-40z"/><path d="m175 192 2 1 1 2-1 2-1 1h-4l-2-1 1-2a4 4 0 0 0 3 1h1v-1l-1-1h-2v-2l3-2h-5v-2h7v2l-2 2Z" fill="#fff"/><path fill="#A9D194" d="M314 173h40v40h-40z"/><path d="M338 196v2h-8v-1l4-4 1-1v-2h-3v1l-2-1 1-1 3-1h2l1 1v3l-1 2-2 2h4Z" fill="#fff"/><path fill="#A9D194" d="M274 173h40v40h-40z"/><path d="M298 196v2h-8v-1l4-4 1-1v-2h-3v1l-2-1 1-1 3-1h2l1 1v3l-1 2-2 2h4Z" fill="#fff"/><path fill="#A9D194" d="M354 173h40v40h-40z"/><path d="M378 196v2h-8v-1l4-4 1-1v-2h-3v1l-2-1 1-1 3-1h2l1 1v3l-1 2-2 2h4Z" fill="#fff"/><path fill="#E0E5A3" d="M394 173h40v40h-40z"/><path d="M414 198h-2l-2-2v-6l2-1 2-1 2 1 2 1v6l-2 2h-2Zm0-2 1-1 1-2-1-2-1-1-1 1-1 2 1 2 1 1Z" fill="#fff"/><path fill="#A0CE93" d="M474 173h40v40h-40z"/><path d="m495 192 2 1 1 2-1 2-1 1h-4l-2-1 1-2a4 4 0 0 0 3 1h1v-1l-1-1h-2v-2l3-2h-5v-2h7v2l-2 2Z" fill="#fff"/><path fill="#A0CE93" d="M594 173h40v40h-40z"/><path d="m615 192 2 1 1 2-1 2-1 1h-4l-2-1 1-2a4 4 0 0 0 3 1h1v-1l-1-1h-2v-2l3-2h-5v-2h7v2l-2 2Z" fill="#fff"/><path fill="#A0CE93" d="M674 173h40v40h-40z"/><path d="m695 192 2 1 1 2-1 2-1 1h-4l-2-1 1-2a4 4 0 0 0 3 1h1v-1l-1-1h-2v-2l3-2h-5v-2h7v2l-2 2Z" fill="#fff"/><path fill="#A9D194" d="M714 173h40v40h-40z"/><path d="M739 196h-2v2h-2v-2h-5v-2l4-6h3l-5 6h3v-2h2v2h2v2Z" fill="#fff"/><path fill="#A9D194" d="M434 173h40v40h-40z"/><path d="M458 196v2h-8v-1l4-4 1-1v-2h-3v1l-2-1 1-1 3-1h2l1 1v3l-1 2-2 2h4Z" fill="#fff"/><path fill="#A9D194" d="M874 173h40v40h-40z"/><path d="M896 188v10h-3v-8h-2v-2h5Z" fill="#fff"/><path fill="#A9D194" d="M1034 173h40v40h-40z"/><path d="M1058 196v2h-8v-1l4-4 1-1v-2h-3v1l-2-1 1-1 3-1h2l1 1v3l-1 2-2 2h4Z" fill="#fff"/><path fill="#A9D194" d="M514 173h40v40h-40z"/><path d="M539 196h-2v2h-2v-2h-5v-2l4-6h3l-5 6h3v-2h2v2h2v2Z" fill="#fff"/><path fill="#A9D194" d="M634 173h40v40h-40z"/><path d="M659 196h-2v2h-2v-2h-5v-2l4-6h3l-5 6h3v-2h2v2h2v2Z" fill="#fff"/><path fill="#8CC894" d="M554 173h40v40h-40z"/><path d="m574 192 3 1 1 2-1 2-1 1h-4l-2-1 1-2a4 4 0 0 0 3 1h1v-2h-4v-6h6v2h-4v2h1Z" fill="#fff"/><path fill="#5EB391" d="M1074 173h40v40h-40z"/><path d="M1095 192h2a3 3 0 0 1 1 3v2l-2 1h-2l-3-1-1-4 1-3 1-1 3-1a6 6 0 0 1 3 1l-1 1h-2l-2 1-1 2 3-1Zm-1 4h2v-2h-3v2h1Z" fill="#fff"/><path fill="#A9D194" d="M954 173h40v40h-40z"/><path d="m975 192 2 1 1 2-1 2-1 1h-4l-2-1 1-2a4 4 0 0 0 3 1h1v-1l-1-1h-2v-2l3-2h-5v-2h7v2l-2 2Z" fill="#fff"/><path fill="#A9D194" d="M914 173h40v40h-40z"/><path d="M939 196h-2v2h-2v-2h-5v-2l4-6h3l-5 6h3v-2h2v2h2v2Z" fill="#fff"/><path fill="#8CC894" d="M794 173h40v40h-40z"/><path d="m814 192 3 1 1 2-1 2-1 1h-4l-2-1 1-2a4 4 0 0 0 3 1h1v-2h-4v-6h6v2h-4v2h1Z" fill="#fff"/><path fill="#5EB391" d="M834 173h40v40h-40z"/><path d="m857 193 1 1v3l-2 1h-4l-2-1v-3l1-1v-1l-1-1 1-2 1-1h4l1 1 1 2-1 1v1Zm-3-3h-1l-1 1 1 1h2l1-1-1-1h-1Zm0 7 1-1 1-1-1-1h-2l-1 1 1 1 1 1Z" fill="#fff"/><path fill="#5EB391" d="M754 173h40v40h-40z"/><path d="M778 188v2l-4 8h-2l3-8h-3v2h-2v-4h8Z" fill="#fff"/><path fill="#5EB391" d="M994 173h40v40h-40z"/><path d="M1015 192h2a3 3 0 0 1 1 3v2l-2 1h-2l-3-1-1-4 1-3 1-1 3-1a6 6 0 0 1 3 1l-1 1h-2l-2 1-1 2 3-1Zm-1 4h2v-2h-3v2h1Z" fill="#fff"/><path fill="#A0CE93" d="M234 173h40v40h-40z"/><path d="m255 192 2 1 1 2-1 2-1 1h-4l-2-1 1-2a4 4 0 0 0 3 1h1v-1l-1-1h-2v-2l3-2h-5v-2h7v2l-2 2Z" fill="#fff"/><path fill="#8CC894" d="M194 173h40v40h-40z"/><path d="m214 192 3 1 1 2-1 2-1 1h-4l-2-1 1-2a4 4 0 0 0 3 1h1v-2h-4v-6h6v2h-4v2h1Z" fill="#fff"/><path fill="#A0CE93" d="M154 133h40v40h-40z"/><path d="m175 152 2 1 1 2-1 2-1 1h-4l-2-1 1-2a4 4 0 0 0 3 1h1v-1l-1-1h-2v-2l3-2h-5v-2h7v2l-2 2Z" fill="#fff"/><path fill="#A9D194" d="M314 133h40v40h-40z"/><path d="M338 156v2h-8v-1l4-4 1-1v-2h-3v1l-2-1 1-1 3-1h2l1 1v3l-1 2-2 2h4Z" fill="#fff"/><path fill="#A9D194" d="M274 133h40v40h-40z"/><path d="M296 148v10h-3v-8h-2v-2h5Z" fill="#fff"/><path fill="#A9D194" d="M354 133h40v40h-40z"/><path d="M378 156v2h-8v-1l4-4 1-1v-2h-3v1l-2-1 1-1 3-1h2l1 1v3l-1 2-2 2h4Z" fill="#fff"/><path fill="#A9D194" d="M394 133h40v40h-40z"/><path d="M418 156v2h-8v-1l4-4 1-1v-2h-3v1l-2-1 1-1 3-1h2l1 1v3l-1 2-2 2h4Z" fill="#fff"/><path fill="#A0CE93" d="M474 133h40v40h-40z"/><path d="m495 152 2 1 1 2-1 2-1 1h-4l-2-1 1-2a4 4 0 0 0 3 1h1v-1l-1-1h-2v-2l3-2h-5v-2h7v2l-2 2Z" fill="#fff"/><path fill="#A9D194" d="M674 133h40v40h-40z"/><path d="M699 156h-2v2h-2v-2h-5v-2l4-6h3l-5 6h3v-2h2v2h2v2Z" fill="#fff"/><path fill="#A9D194" d="M434 133h40v40h-40z"/><path d="M458 156v2h-8v-1l4-4 1-1v-2h-3v1l-2-1 1-1 3-1h2l1 1v3l-1 2-2 2h4Z" fill="#fff"/><path fill="#A9D194" d="M594 133h40v40h-40z"/><path d="M618 156v2h-8v-1l4-4 1-1v-2h-3v1l-2-1 1-1 3-1h2l1 1v3l-1 2-2 2h4Z" fill="#fff"/><path fill="#A9D194" d="M554 133h40v40h-40z"/><path d="M578 156v2h-8v-1l4-4 1-1v-2h-3v1l-2-1 1-1 3-1h2l1 1v3l-1 2-2 2h4Z" fill="#fff"/><path fill="#A9D194" d="M1074 133h40v40h-40z"/><path d="M1098 156v2h-8v-1l4-4 1-1v-2h-3v1l-2-1 1-1 3-1h2l1 1v3l-1 2-2 2h4Z" fill="#fff"/><path fill="#A9D194" d="M514 133h40v40h-40z"/><path d="M539 156h-2v2h-2v-2h-5v-2l4-6h3l-5 6h3v-2h2v2h2v2Z" fill="#fff"/><path fill="#8CC894" d="M634 133h40v40h-40z"/><path d="m654 152 3 1 1 2-1 2-1 1h-4l-2-1 1-2a4 4 0 0 0 3 1h1v-2h-4v-6h6v2h-4v2h1Z" fill="#fff"/><path fill="#8CC894" d="M874 133h40v40h-40z"/><path d="m894 152 3 1 1 2-1 2-1 1h-4l-2-1 1-2a4 4 0 0 0 3 1h1v-2h-4v-6h6v2h-4v2h1Z" fill="#fff"/><path fill="#A9D194" d="M1034 133h40v40h-40z"/><path d="M1059 156h-2v2h-2v-2h-5v-2l4-6h3l-5 6h3v-2h2v2h2v2Z" fill="#fff"/><path fill="#A9D194" d="M994 133h40v40h-40z"/><path d="M1019 156h-2v2h-2v-2h-5v-2l4-6h3l-5 6h3v-2h2v2h2v2Z" fill="#fff"/><path fill="#A9D194" d="M954 133h40v40h-40z"/><path d="M979 156h-2v2h-2v-2h-5v-2l4-6h3l-5 6h3v-2h2v2h2v2Z" fill="#fff"/><path fill="#8CC894" d="M834 133h40v40h-40z"/><path d="m854 152 3 1 1 2-1 2-1 1h-4l-2-1 1-2a4 4 0 0 0 3 1h1v-2h-4v-6h6v2h-4v2h1Z" fill="#fff"/><path fill="#5EB391" d="M794 133h40v40h-40z"/><path d="M815 152h2l1 1v2a3 3 0 0 1-2 3h-2l-3-1-1-4 1-3 1-1 3-1h2l1 1-1 1h-2l-2 1-1 2 3-1Zm-1 4h2v-2h-3v2h1Z" fill="#fff"/><path fill="#5EB391" d="M754 133h40v40h-40z"/><path d="M775 152h2l1 1v2a3 3 0 0 1-2 3h-2l-3-1-1-4 1-3 1-1 3-1h2l1 1-1 1h-2l-2 1-1 2 3-1Zm-1 4h2v-2h-3v2h1Z" fill="#fff"/><path fill="#5EB391" d="M714 133h40v40h-40z"/><path d="M735 152h2l1 1v2a3 3 0 0 1-2 3h-2l-3-1-1-4 1-3 1-1 3-1h2l1 1-1 1h-2l-2 1-1 2 3-1Zm-1 4h2v-2h-3v2h1Z" fill="#fff"/><path fill="#5EB391" d="M914 133h40v40h-40z"/><path d="M938 148v2l-4 8h-2l3-8h-3v2h-2v-4h8Z" fill="#fff"/><path fill="#A9D194" d="M234 133h40v40h-40z"/><path d="M258 156v2h-8v-1l4-4 1-1v-2h-3v1l-2-1 1-1 3-1h2l1 1v3l-1 2-2 2h4Z" fill="#fff"/><path fill="#A9D194" d="M194 133h40v40h-40z"/><path d="M216 148v10h-3v-8h-2v-2h5Z" fill="#fff"/><path fill="#A9D194" d="M154 93h40v40h-40z"/><path d="M178 116v2h-8v-1l4-4 1-1v-2h-3v1l-2-1 1-1 3-1h2l1 1v3l-1 2-2 2h4Z" fill="#fff"/><path fill="#5EB391" d="M234 93h40v40h-40z"/><path d="M255 112h2l1 1v2a3 3 0 0 1-2 3h-2l-3-1-1-4 1-3 1-1 3-1h2l1 1-1 1h-2l-2 1-1 2 3-1Zm-1 4h2v-2h-3v2h1Z" fill="#fff"/><path fill="#A9D194" d="M274 93h40v40h-40z"/><path d="M298 116v2h-8v-1l4-4 1-1v-2h-3v1l-2-1 1-1 3-1h2l1 1v3l-1 2-2 2h4Z" fill="#fff"/><path fill="#A9D194" d="M354 93h40v40h-40z"/><path d="M378 116v2h-8v-1l4-4 1-1v-2h-3v1l-2-1 1-1 3-1h2l1 1v3l-1 2-2 2h4Z" fill="#fff"/><path fill="#A9D194" d="M394 93h40v40h-40z"/><path d="M418 116v2h-8v-1l4-4 1-1v-2h-3v1l-2-1 1-1 3-1h2l1 1v3l-1 2-2 2h4Z" fill="#fff"/><path fill="#A9D194" d="M474 93h40v40h-40z"/><path d="M496 108v10h-3v-8h-2v-2h5Z" fill="#fff"/><path fill="#A9D194" d="M434 93h40v40h-40z"/><path d="M456 108v10h-3v-8h-2v-2h5Z" fill="#fff"/><path fill="#A9D194" d="M994 93h40v40h-40z"/><path d="M1018 116v2h-8v-1l4-4 1-1v-2h-3v1l-2-1 1-1 3-1h2l1 1v3l-1 2-2 2h4Z" fill="#fff"/><path fill="#A0CE93" d="M954 93h40v40h-40z"/><path d="m975 112 2 1 1 2-1 2-1 1h-4l-2-1 1-2a4 4 0 0 0 3 1h1v-1l-1-1h-2v-2l3-2h-5v-2h7v2l-2 2Z" fill="#fff"/><path fill="#A0CE93" d="M1074 93h40v40h-40z"/><path d="m1095 112 2 1 1 2-1 2-1 1h-4l-2-1 1-2a4 4 0 0 0 3 1h1v-1l-1-1h-2v-2l3-2h-5v-2h7v2l-2 2Z" fill="#fff"/><path fill="#A0CE93" d="M1034 93h40v40h-40z"/><path d="m1055 112 2 1 1 2-1 2-1 1h-4l-2-1 1-2a4 4 0 0 0 3 1h1v-1l-1-1h-2v-2l3-2h-5v-2h7v2l-2 2Z" fill="#fff"/><path fill="#A9D194" d="M834 93h40v40h-40z"/><path d="M856 108v10h-3v-8h-2v-2h5Z" fill="#fff"/><path fill="#3984A3" d="M794 93h40v40h-40z"/><path d="M813 108v10h-2v-8h-2v-2h4Zm5 0v10h-2v-8h-2v-2h4Z" fill="#fff"/><path fill="#A0CE93" d="M314 93h40v40h-40z"/><path d="m335 112 2 1 1 2-1 2-1 1h-4l-2-1 1-2a4 4 0 0 0 3 1h1v-1l-1-1h-2v-2l3-2h-5v-2h7v2l-2 2Z" fill="#fff"/><path fill="#A9D194" d="M514 93h40v40h-40z"/><path d="m535 112 2 1 1 2-1 2-1 1h-4l-2-1 1-2a4 4 0 0 0 3 1h1v-1l-1-1h-2v-2l3-2h-5v-2h7v2l-2 2Z" fill="#fff"/><path fill="#A9D194" d="M554 93h40v40h-40z"/><path d="M579 116h-2v2h-2v-2h-5v-2l4-6h3l-5 6h3v-2h2v2h2v2Z" fill="#fff"/><path fill="#8CC894" d="M674 93h40v40h-40z"/><path d="m694 112 3 1 1 2-1 2-1 1h-4l-2-1 1-2a4 4 0 0 0 3 1h1v-2h-4v-6h6v2h-4v2h1Z" fill="#fff"/><path fill="#8CC894" d="M874 93h40v40h-40z"/><path d="m894 112 3 1 1 2-1 2-1 1h-4l-2-1 1-2a4 4 0 0 0 3 1h1v-2h-4v-6h6v2h-4v2h1Z" fill="#fff"/><path fill="#5EB391" d="M754 93h40v40h-40z"/><path d="M775 112h2l1 1v2a3 3 0 0 1-2 3h-2l-3-1-1-4 1-3 1-1 3-1h2l1 1-1 1h-2l-2 1-1 2 3-1Zm-1 4h2v-2h-3v2h1Z" fill="#fff"/><path fill="#5AAD8C" d="M714 93h40v40h-40z"/><path d="m734 108 3 1 1 4-1 3-1 2h-5l-1-1 1-1h4l1-3-3 1h-2l-1-1v-2a3 3 0 0 1 2-3h2Zm0 5 1-1v-2h-3v2l2 1Z" fill="#fff"/><path fill="#5EB391" d="M634 93h40v40h-40z"/><path d="M655 112h2l1 1v2a3 3 0 0 1-2 3h-2l-3-1-1-4 1-3 1-1 3-1h2l1 1-1 1h-2l-2 1-1 2 3-1Zm-1 4h2v-2h-3v2h1Z" fill="#fff"/><path fill="#5EB391" d="M914 93h40v40h-40z"/><path d="M935 112h2l1 1v2a3 3 0 0 1-2 3h-2l-3-1-1-4 1-3 1-1 3-1h2l1 1-1 1h-2l-2 1-1 2 3-1Zm-1 4h2v-2h-3v2h1Z" fill="#fff"/><path fill="#5EB391" d="M594 93h40v40h-40z"/><path d="M615 112h2l1 1v2a3 3 0 0 1-2 3h-2l-3-1-1-4 1-3 1-1 3-1h2l1 1-1 1h-2l-2 1-1 2 3-1Zm-1 4h2v-2h-3v2h1Z" fill="#fff"/><path fill="#A9D194" d="M194 93h40v40h-40z"/><path d="M216 108v10h-3v-8h-2v-2h5Z" fill="#fff"/><defs><linearGradient id="a" x1="154" y1="1" x2="154" y2="53" gradientUnits="userSpaceOnUse"><stop stop-color="#FEFEFE"/><stop offset="1" stop-color="#E9E9E9"/></linearGradient></defs></svg>